HIERARCHY
ROOT mixamorig:Hips
{
	OFFSET -0.000008 104.274872 1.554316
	CHANNELS 6 Xposition Yposition Zposition Xrotation Yrotation Zrotation
	JOINT mixamorig:Spine
	{
		OFFSET -0.000005 10.181595 0.131519
		CHANNELS 6 Xposition Yposition Zposition Xrotation Yrotation Zrotation
		JOINT mixamorig:Spine1
		{
			OFFSET -0.000000 9.893959 -1.470707
			CHANNELS 6 Xposition Yposition Zposition Xrotation Yrotation Zrotation
			JOINT mixamorig:Spine2
			{
				OFFSET -0.000000 9.220757 -1.370641
				CHANNELS 6 Xposition Yposition Zposition Xrotation Yrotation Zrotation
				JOINT mixamorig:Neck
				{
					OFFSET 0.000001 16.740417 -2.049036
					CHANNELS 6 Xposition Yposition Zposition Xrotation Yrotation Zrotation
					JOINT mixamorig:Head
					{
						OFFSET 0.000000 9.617874 1.685006
						CHANNELS 6 Xposition Yposition Zposition Xrotation Yrotation Zrotation
						JOINT mixamorig:HeadTop_End
						{
							OFFSET 0.000002 22.037354 7.501101
							CHANNELS 6 Xposition Yposition Zposition Xrotation Yrotation Zrotation
							End Site
							{
								OFFSET 0.000168 2310.654297 -282.823242
							}
						}
					}
				}
				JOINT mixamorig:RightShoulder
				{
					OFFSET -4.569970 11.014908 -2.160885
					CHANNELS 6 Xposition Yposition Zposition Xrotation Yrotation Zrotation
					JOINT mixamorig:RightArm
					{
						OFFSET -10.592851 -0.524811 -2.232101
						CHANNELS 6 Xposition Yposition Zposition Xrotation Yrotation Zrotation
						JOINT mixamorig:RightForeArm
						{
							OFFSET -27.841511 0.000031 -0.000004
							CHANNELS 6 Xposition Yposition Zposition Xrotation Yrotation Zrotation
							JOINT mixamorig:RightHand
							{
								OFFSET -28.328831 -0.000015 0.000015
								CHANNELS 6 Xposition Yposition Zposition Xrotation Yrotation Zrotation
								JOINT mixamorig:RightHandThumb1
								{
									OFFSET -2.464806 -1.573990 2.681852
									CHANNELS 6 Xposition Yposition Zposition Xrotation Yrotation Zrotation
									JOINT mixamorig:RightHandThumb2
									{
										OFFSET -3.215179 -1.872803 1.924282
										CHANNELS 6 Xposition Yposition Zposition Xrotation Yrotation Zrotation
										JOINT mixamorig:RightHandThumb3
										{
											OFFSET -2.654831 -1.527969 1.512609
											CHANNELS 6 Xposition Yposition Zposition Xrotation Yrotation Zrotation
											JOINT mixamorig:RightHandThumb4
											{
												OFFSET -2.018814 -1.152008 1.108052
												CHANNELS 6 Xposition Yposition Zposition Xrotation Yrotation Zrotation
												End Site
												{
													OFFSET -188.809540 -114.533607 132.431396
												}
											}
										}
									}
								}
								JOINT mixamorig:RightHandIndex1
								{
									OFFSET -9.108284 -0.517868 2.259835
									CHANNELS 6 Xposition Yposition Zposition Xrotation Yrotation Zrotation
									JOINT mixamorig:RightHandIndex2
									{
										OFFSET -3.699989 0.000000 0.001215
										CHANNELS 6 Xposition Yposition Zposition Xrotation Yrotation Zrotation
										JOINT mixamorig:RightHandIndex3
										{
											OFFSET -2.850006 0.000031 -0.000522
											CHANNELS 6 Xposition Yposition Zposition Xrotation Yrotation Zrotation
											JOINT mixamorig:RightHandIndex4
											{
												OFFSET -2.772186 -0.000015 -0.000020
												CHANNELS 6 Xposition Yposition Zposition Xrotation Yrotation Zrotation
												End Site
												{
													OFFSET -277.218445 0.000000 -0.050231
												}
											}
										}
									}
								}
								JOINT mixamorig:RightHandMiddle1
								{
									OFFSET -9.532516 -0.000031 -0.000023
									CHANNELS 6 Xposition Yposition Zposition Xrotation Yrotation Zrotation
									JOINT mixamorig:RightHandMiddle2
									{
										OFFSET -3.700005 -0.000015 0.003713
										CHANNELS 6 Xposition Yposition Zposition Xrotation Yrotation Zrotation
										JOINT mixamorig:RightHandMiddle3
										{
											OFFSET -2.949974 0.000015 -0.002054
											CHANNELS 6 Xposition Yposition Zposition Xrotation Yrotation Zrotation
											JOINT mixamorig:RightHandMiddle4
											{
												OFFSET -2.946640 0.000000 -0.000156
												CHANNELS 6 Xposition Yposition Zposition Xrotation Yrotation Zrotation
												End Site
												{
													OFFSET -294.664337 0.000000 -0.113670
												}
											}
										}
									}
								}
								JOINT mixamorig:RightHandRing1
								{
									OFFSET -9.103600 -0.043076 -1.865134
									CHANNELS 6 Xposition Yposition Zposition Xrotation Yrotation Zrotation
									JOINT mixamorig:RightHandRing2
									{
										OFFSET -3.379288 0.000000 -0.001055
										CHANNELS 6 Xposition Yposition Zposition Xrotation Yrotation Zrotation
										JOINT mixamorig:RightHandRing3
										{
											OFFSET -2.889687 -0.000015 0.000379
											CHANNELS 6 Xposition Yposition Zposition Xrotation Yrotation Zrotation
											JOINT mixamorig:RightHandRing4
											{
												OFFSET -2.638809 -0.000015 0.000941
												CHANNELS 6 Xposition Yposition Zposition Xrotation Yrotation Zrotation
												End Site
												{
													OFFSET -263.880371 0.000000 0.516020
												}
											}
										}
									}
								}
								JOINT mixamorig:RightHandPinky1
								{
									OFFSET -8.076683 -0.486710 -3.806280
									CHANNELS 6 Xposition Yposition Zposition Xrotation Yrotation Zrotation
									JOINT mixamorig:RightHandPinky2
									{
										OFFSET -3.600014 -0.000015 -0.003747
										CHANNELS 6 Xposition Yposition Zposition Xrotation Yrotation Zrotation
										JOINT mixamorig:RightHandPinky3
										{
											OFFSET -2.099983 0.000000 -0.005739
											CHANNELS 6 Xposition Yposition Zposition Xrotation Yrotation Zrotation
											JOINT mixamorig:RightHandPinky4
											{
												OFFSET -2.115768 -0.000031 -0.003680
												CHANNELS 6 Xposition Yposition Zposition Xrotation Yrotation Zrotation
												End Site
												{
													OFFSET -211.577087 0.000000 -0.350686
												}
											}
										}
									}
								}
							}
						}
					}
				}
				JOINT mixamorig:LeftShoulder
				{
					OFFSET 4.570447 11.014725 -2.160855
					CHANNELS 6 Xposition Yposition Zposition Xrotation Yrotation Zrotation
					JOINT mixamorig:LeftArm
					{
						OFFSET 10.592371 -0.524597 -2.232119
						CHANNELS 6 Xposition Yposition Zposition Xrotation Yrotation Zrotation
						JOINT mixamorig:LeftForeArm
						{
							OFFSET 27.841532 -0.000031 0.000026
							CHANNELS 6 Xposition Yposition Zposition Xrotation Yrotation Zrotation
							JOINT mixamorig:LeftHand
							{
								OFFSET 28.328846 -0.000061 0.000022
								CHANNELS 6 Xposition Yposition Zposition Xrotation Yrotation Zrotation
								JOINT mixamorig:LeftHandThumb1
								{
									OFFSET 2.466141 -1.576172 2.681732
									CHANNELS 6 Xposition Yposition Zposition Xrotation Yrotation Zrotation
									JOINT mixamorig:LeftHandThumb2
									{
										OFFSET 3.217812 -1.872070 1.916482
										CHANNELS 6 Xposition Yposition Zposition Xrotation Yrotation Zrotation
										JOINT mixamorig:LeftHandThumb3
										{
											OFFSET 2.656029 -1.528778 1.514513
											CHANNELS 6 Xposition Yposition Zposition Xrotation Yrotation Zrotation
											JOINT mixamorig:LeftHandThumb4
											{
												OFFSET 2.020889 -1.154053 1.115139
												CHANNELS 6 Xposition Yposition Zposition Xrotation Yrotation Zrotation
												End Site
												{
													OFFSET 190.885437 -115.081749 130.048782
												}
											}
										}
									}
								}
								JOINT mixamorig:LeftHandIndex1
								{
									OFFSET 9.109314 -0.518021 2.259871
									CHANNELS 6 Xposition Yposition Zposition Xrotation Yrotation Zrotation
									JOINT mixamorig:LeftHandIndex2
									{
										OFFSET 3.699989 0.000000 -0.000322
										CHANNELS 6 Xposition Yposition Zposition Xrotation Yrotation Zrotation
										JOINT mixamorig:LeftHandIndex3
										{
											OFFSET 2.850006 0.000000 0.000352
											CHANNELS 6 Xposition Yposition Zposition Xrotation Yrotation Zrotation
											JOINT mixamorig:LeftHandIndex4
											{
												OFFSET 2.774864 -0.000031 -0.000027
												CHANNELS 6 Xposition Yposition Zposition Xrotation Yrotation Zrotation
												End Site
												{
													OFFSET 277.486267 0.000000 -0.009857
												}
											}
										}
									}
								}
								JOINT mixamorig:LeftHandMiddle1
								{
									OFFSET 9.533394 0.000061 0.000044
									CHANNELS 6 Xposition Yposition Zposition Xrotation Yrotation Zrotation
									JOINT mixamorig:LeftHandMiddle2
									{
										OFFSET 3.699989 -0.000015 -0.000231
										CHANNELS 6 Xposition Yposition Zposition Xrotation Yrotation Zrotation
										JOINT mixamorig:LeftHandMiddle3
										{
											OFFSET 2.949997 -0.000015 -0.000059
											CHANNELS 6 Xposition Yposition Zposition Xrotation Yrotation Zrotation
											JOINT mixamorig:LeftHandMiddle4
											{
												OFFSET 2.952896 0.000031 0.000063
												CHANNELS 6 Xposition Yposition Zposition Xrotation Yrotation Zrotation
												End Site
												{
													OFFSET 295.289337 0.000000 0.022810
												}
											}
										}
									}
								}
								JOINT mixamorig:LeftHandRing1
								{
									OFFSET 9.104523 -0.042999 -1.865074
									CHANNELS 6 Xposition Yposition Zposition Xrotation Yrotation Zrotation
									JOINT mixamorig:LeftHandRing2
									{
										OFFSET 3.150009 -0.000031 0.000043
										CHANNELS 6 Xposition Yposition Zposition Xrotation Yrotation Zrotation
										JOINT mixamorig:LeftHandRing3
										{
											OFFSET 2.949982 -0.000015 0.000040
											CHANNELS 6 Xposition Yposition Zposition Xrotation Yrotation Zrotation
											JOINT mixamorig:LeftHandRing4
											{
												OFFSET 2.644348 0.000000 0.000057
												CHANNELS 6 Xposition Yposition Zposition Xrotation Yrotation Zrotation
												End Site
												{
													OFFSET 264.434631 0.000000 0.012105
												}
											}
										}
									}
								}
								JOINT mixamorig:LeftHandPinky1
								{
									OFFSET 8.077789 -0.486847 -3.806259
									CHANNELS 6 Xposition Yposition Zposition Xrotation Yrotation Zrotation
									JOINT mixamorig:LeftHandPinky2
									{
										OFFSET 3.599953 0.000031 0.014727
										CHANNELS 6 Xposition Yposition Zposition Xrotation Yrotation Zrotation
										JOINT mixamorig:LeftHandPinky3
										{
											OFFSET 2.100021 0.000015 0.007705
											CHANNELS 6 Xposition Yposition Zposition Xrotation Yrotation Zrotation
											JOINT mixamorig:LeftHandPinky4
											{
												OFFSET 2.125504 0.000031 0.007517
												CHANNELS 6 Xposition Yposition Zposition Xrotation Yrotation Zrotation
												End Site
												{
													OFFSET 212.550781 0.000000 0.625752
												}
											}
										}
									}
								}
							}
						}
					}
				}
			}
		}
	}
	JOINT mixamorig:RightUpLeg
	{
		OFFSET -8.207787 -6.751648 -1.599560
		CHANNELS 6 Xposition Yposition Zposition Xrotation Yrotation Zrotation
		JOINT mixamorig:RightLeg
		{
			OFFSET -0.000002 -44.370117 0.345942
			CHANNELS 6 Xposition Yposition Zposition Xrotation Yrotation Zrotation
			JOINT mixamorig:RightFoot
			{
				OFFSET 0.000003 -44.423679 -3.043532
				CHANNELS 6 Xposition Yposition Zposition Xrotation Yrotation Zrotation
				JOINT mixamorig:RightToeBase
				{
					OFFSET -0.000002 -8.728671 10.710558
					CHANNELS 6 Xposition Yposition Zposition Xrotation Yrotation Zrotation
					JOINT mixamorig:RightToe_End
					{
						OFFSET -0.000001 -0.000679 9.278119
						CHANNELS 6 Xposition Yposition Zposition Xrotation Yrotation Zrotation
						End Site
						{
							OFFSET 0.000000 -0.067690 927.812134
						}
					}
				}
			}
		}
	}
	JOINT mixamorig:LeftUpLeg
	{
		OFFSET 8.207793 -6.751686 -1.599556
		CHANNELS 6 Xposition Yposition Zposition Xrotation Yrotation Zrotation
		JOINT mixamorig:LeftLeg
		{
			OFFSET -0.000004 -44.370014 0.346954
			CHANNELS 6 Xposition Yposition Zposition Xrotation Yrotation Zrotation
			JOINT mixamorig:LeftFoot
			{
				OFFSET -0.000001 -44.423672 -3.044401
				CHANNELS 6 Xposition Yposition Zposition Xrotation Yrotation Zrotation
				JOINT mixamorig:LeftToeBase
				{
					OFFSET -0.000002 -8.728669 10.710558
					CHANNELS 6 Xposition Yposition Zposition Xrotation Yrotation Zrotation
					JOINT mixamorig:LeftToe_End
					{
						OFFSET -0.000003 -0.000679 9.278133
						CHANNELS 6 Xposition Yposition Zposition Xrotation Yrotation Zrotation
						End Site
						{
							OFFSET 0.000000 -0.068021 927.813477
						}
					}
				}
			}
		}
	}
}
MOTION
Frames: 3
Frame Time: 0.033333
0.000006 104.270477 1.554256 0.000010 0.000003 -0.000113 -0.000005 10.181587 0.131522 0.000001 -0.000003 0.000084 -0.000000 9.893967 -1.470711 0.000001 0.000000 -0.000000 -0.000000 9.220802 -1.370642 0.000000 -0.000000 -0.000000 0.000001 16.740433 -2.049030 0.000000 -0.000000 -0.000000 0.000000 9.617859 1.685014 0.000000 0.000000 0.000000 0.000002 22.037384 7.501101 0.000000 -0.000000 0.000000 -4.569968 11.014880 -2.160881 0.000008 0.000001 -0.000038 -10.592875 -0.524758 -2.231902 69.930653 30.413453 -21.525396 -27.841530 -0.000004 0.000535 -56.764681 116.881981 82.673156 -28.328829 0.000022 0.000024 -0.000321 -0.000044 0.000007 -2.464422 -1.573781 2.682336 -46.889392 -164.476829 -7.243902 -3.215268 -1.872554 1.924641 151.236330 32.946821 16.577943 -2.654953 -1.527864 1.513044 148.080263 27.550845 -28.934676 -2.018835 -1.152003 1.108063 -0.000005 0.000003 0.000005 -9.108383 -0.517563 2.260141 103.160192 15.042858 -18.960095 -3.700053 0.000319 0.001522 99.787868 12.680314 -15.002427 -2.850101 0.000376 -0.000257 98.678707 10.436941 -12.137966 -2.772151 -0.000001 -0.000019 0.000000 0.000000 0.000001 -9.532591 0.000268 0.000245 94.175516 15.424304 -16.727640 -3.700062 0.000318 0.003965 93.086920 12.718899 -13.316558 -2.950076 0.000329 -0.001809 95.835375 11.776339 -13.022987 -2.946604 0.000000 -0.000155 0.000001 0.000000 0.000001 -9.103709 -0.042768 -1.864874 91.690987 17.629102 -18.102424 -3.379335 0.000318 -0.000812 91.912093 10.723555 -11.103459 -2.889759 0.000351 0.000650 98.372442 7.554296 -8.796324 -2.638808 -0.000000 0.000941 -0.000002 -0.000000 -0.000000 -8.076754 -0.486394 -3.806034 83.158038 18.067206 -15.921519 -3.600029 0.000272 -0.003544 83.566395 8.726922 -7.482122 -2.100029 0.000324 -0.005514 86.463604 4.948526 -4.448223 -2.115793 -0.000029 -0.003682 -0.000002 -0.000001 -0.000005 4.570446 11.014691 -2.160851 -0.000018 0.000010 -0.000021 10.592494 -0.524550 -2.232366 45.419665 -65.439756 30.100036 27.841745 -0.000082 -0.000079 226.894390 -69.127183 244.386163 28.328838 -0.000028 0.000026 0.000020 -0.000088 0.000000 2.466175 -1.576134 2.681887 109.265138 161.134859 -157.858458 3.217838 -1.871971 1.916518 255.103768 35.116762 45.641547 2.656066 -1.528755 1.514631 -100.366795 29.250241 41.009484 2.020898 -1.154072 1.115129 -0.000002 -0.000001 0.000006 9.109050 -0.517831 2.259982 189.617895 -12.815129 253.661314 3.699737 0.000214 -0.000202 192.426646 -14.054288 -97.088147 2.849730 0.000239 0.000476 12.898256 -164.783423 80.477155 2.774895 -0.000029 -0.000026 0.000001 0.000001 -0.000000 9.533490 0.000174 -0.000032 86.464321 -33.998725 32.061109 3.700010 -0.000008 -0.000282 17.100791 -1.804828 0.271004 2.950008 -0.000008 -0.000031 -6.288917 0.368129 0.020078 2.952872 -0.000019 0.000065 0.000003 -0.000001 0.000004 9.104590 -0.042943 -1.865171 239.760622 -152.127547 196.230064 3.149976 0.000039 -0.000048 11.531530 24.308826 -2.491811 2.949973 -0.000015 0.000032 -14.890147 19.208469 2.533028 2.644329 0.000036 0.000062 -0.000000 0.000001 -0.000001 8.077835 -0.486826 -3.806333 46.887445 -27.599481 12.484406 3.599940 0.000013 0.014673 7.322379 16.216358 -1.078286 2.099991 -0.000009 0.007706 -14.016029 23.763579 2.829074 2.125507 -0.000001 0.007518 -0.000000 -0.000003 -0.000001 -8.207786 -6.751667 -1.599560 -0.077001 -0.000003 0.000080 -0.000002 -44.370110 0.345938 0.153719 -0.000000 -0.000000 0.000000 -44.423679 -3.043532 -0.076700 0.000000 -0.000002 -0.000006 -8.728667 10.710559 -0.000009 -0.000000 -0.000000 -0.000001 -0.000679 9.278123 0.000000 -0.000000 -0.000000 8.207792 -6.751710 -1.599556 -0.074518 -0.000003 0.000081 -0.000002 -44.370014 0.346960 0.148822 0.000002 0.000000 -0.000001 -44.423664 -3.044403 -0.074314 0.000000 -0.000002 -0.000004 -8.728671 10.710558 0.000007 -0.000000 -0.000000 0.000000 -0.000680 9.278137 -0.000000 0.000000 -0.000001 
0.000006 104.270477 1.554256 0.000010 0.000003 -0.000113 -0.000005 10.181587 0.131522 0.000001 -0.000003 0.000084 -0.000000 9.893967 -1.470711 0.000001 0.000000 -0.000000 -0.000000 9.220802 -1.370642 0.000000 -0.000000 -0.000000 0.000001 16.740433 -2.049030 0.000000 -0.000000 -0.000000 0.000000 9.617859 1.685014 0.000000 0.000000 0.000000 0.000002 22.037384 7.501101 0.000000 -0.000000 0.000000 -4.569968 11.014880 -2.160881 0.000008 0.000001 -0.000038 -10.592880 -0.524751 -2.231921 69.868648 27.008484 -19.045405 -27.841545 -0.000001 0.000554 -57.023255 118.001750 84.233315 -28.328825 0.000008 0.000025 -0.000321 -0.000045 0.000009 -2.464425 -1.573726 2.682312 -50.549376 -167.335209 -17.148303 -3.215254 -1.872517 1.924633 150.194890 32.971522 18.519730 -2.654958 -1.527870 1.513065 147.943086 27.543856 -29.185275 -2.018822 -1.152011 1.108059 -0.000001 -0.000003 0.000000 -9.108373 -0.517547 2.260138 102.810944 15.118520 -18.937879 -3.700091 0.000324 0.001519 100.149288 13.089246 -15.583592 -2.850075 0.000368 -0.000250 99.364895 10.772457 -12.678991 -2.772185 -0.000003 -0.000021 -0.000000 -0.000000 -0.000001 -9.532592 0.000278 0.000247 94.535214 15.311428 -16.709836 -3.700074 0.000332 0.003963 92.429303 12.671084 -13.115991 -2.950065 0.000327 -0.001816 94.956124 11.558857 -12.588787 -2.946619 0.000014 -0.000155 -0.000003 0.000000 0.000001 -9.103703 -0.042754 -1.864873 92.618588 16.961909 -17.696452 -3.379317 0.000321 -0.000817 91.341902 10.101604 -10.357575 -2.889764 0.000362 0.000643 97.372775 7.011737 -8.026387 -2.638811 -0.000017 0.000937 -0.000003 0.000000 0.000001 -8.076752 -0.486394 -3.806039 83.628406 17.560080 -15.596778 -3.600035 0.000278 -0.003544 83.635578 7.988247 -6.832767 -2.099998 0.000302 -0.005519 86.386177 4.202115 -3.743568 -2.115775 -0.000029 -0.003690 -0.000005 0.000002 -0.000001 4.570446 11.014691 -2.160851 -0.000018 0.000010 -0.000021 10.592490 -0.524563 -2.232366 45.251506 -64.086886 29.242666 27.841755 -0.000068 -0.000084 226.332580 -69.370932 243.457722 28.328833 0.000001 0.000032 0.000018 -0.000087 -0.000001 2.466181 -1.576109 2.681877 108.964146 160.324716 -157.593993 3.217847 -1.871970 1.916523 251.550403 36.597052 48.647192 2.656069 -1.528751 1.514617 -102.788213 30.752548 43.109736 2.020887 -1.154055 1.115154 0.000005 0.000003 0.000001 9.109048 -0.517835 2.259969 188.645303 -12.248362 250.308565 3.699714 0.000224 -0.000197 192.199146 -13.937588 -97.667020 2.849715 0.000225 0.000480 13.026142 -164.238415 79.029653 2.774895 -0.000030 -0.000024 0.000005 0.000000 -0.000000 9.533470 0.000129 -0.000040 70.053275 -35.077659 24.972908 3.700003 -0.000008 -0.000291 14.798875 -2.177819 0.282524 2.950024 -0.000036 -0.000036 -6.954946 -0.019770 -0.001349 2.952881 0.000001 0.000062 0.000003 0.000000 -0.000000 9.104569 -0.042947 -1.865180 226.322266 -156.922572 189.983829 3.149968 0.000024 -0.000052 8.843686 24.813686 -1.949427 2.949974 -0.000011 0.000047 -16.024787 18.044439 2.560289 2.644327 0.000033 0.000054 0.000000 0.000002 -0.000001 8.077816 -0.486829 -3.806334 32.399679 -21.209800 6.453617 3.599940 0.000019 0.014685 4.647678 14.209815 -0.615257 2.099989 0.000008 0.007722 -16.240563 22.466475 3.108895 2.125492 0.000001 0.007516 0.000001 0.000005 0.000001 -8.207786 -6.751667 -1.599560 -0.077001 -0.000003 0.000080 -0.000002 -44.370110 0.345938 0.153719 -0.000000 -0.000000 0.000000 -44.423679 -3.043532 -0.076700 0.000000 -0.000002 -0.000006 -8.728667 10.710559 -0.000009 -0.000000 -0.000000 -0.000001 -0.000679 9.278123 0.000000 -0.000000 -0.000000 8.207792 -6.751710 -1.599556 -0.074518 -0.000003 0.000081 -0.000002 -44.370014 0.346960 0.148822 0.000002 0.000000 -0.000001 -44.423664 -3.044403 -0.074314 0.000000 -0.000002 -0.000004 -8.728671 10.710558 0.000007 -0.000000 -0.000000 0.000000 -0.000680 9.278137 -0.000000 0.000000 -0.000001 
0.000006 104.270477 1.554256 0.000010 0.000003 -0.000113 -0.000005 10.181587 0.131522 0.000001 -0.000003 0.000084 -0.000000 9.893967 -1.470711 0.000001 0.000000 -0.000000 -0.000000 9.220802 -1.370642 0.000000 -0.000000 -0.000000 0.000001 16.740433 -2.049030 0.000000 -0.000000 -0.000000 0.000000 9.617859 1.685014 0.000000 0.000000 0.000000 0.000002 22.037384 7.501101 0.000000 -0.000000 0.000000 -4.569968 11.014880 -2.160881 0.000008 0.000001 -0.000038 -10.592875 -0.524754 -2.231915 69.947004 29.108173 -20.586885 -27.841534 -0.000002 0.000535 -57.031359 117.364220 83.527094 -28.328833 0.000020 0.000025 -0.000321 -0.000046 0.000009 -2.464427 -1.573767 2.682313 -49.016293 -164.962497 -12.862197 -3.215259 -1.872530 1.924618 149.953142 33.190317 20.611040 -2.654972 -1.527879 1.513065 147.957088 27.517594 -29.428321 -2.018845 -1.151996 1.108047 -0.000004 -0.000000 0.000000 -9.108394 -0.517547 2.260136 103.559861 15.003204 -19.044166 -3.700073 0.000320 0.001528 100.961404 12.845018 -15.512806 -2.850086 0.000367 -0.000241 99.900375 10.545985 -12.530298 -2.772157 -0.000000 -0.000021 0.000000 0.000000 0.000000 -9.532598 0.000275 0.000250 95.367227 15.228079 -16.860327 -3.700054 0.000327 0.003970 92.996379 12.397198 -12.957513 -2.950083 0.000343 -0.001787 95.016052 11.336317 -12.359463 -2.946624 0.000002 -0.000156 0.000002 -0.000000 -0.000000 -9.103715 -0.042770 -1.864875 93.603918 16.895807 -17.928729 -3.379340 0.000320 -0.000828 91.792196 9.946617 -10.279017 -2.889762 0.000362 0.000636 97.428871 6.907532 -7.915677 -2.638801 -0.000027 0.000944 -0.000000 0.000000 -0.000000 -8.076758 -0.486378 -3.806021 84.247836 17.830853 -16.010754 -3.600011 0.000285 -0.003535 84.434457 7.892056 -6.842142 -2.099987 0.000311 -0.005525 86.969263 4.004732 -3.595286 -2.115785 -0.000043 -0.003682 -0.000003 -0.000001 -0.000003 4.570446 11.014691 -2.160851 -0.000018 0.000010 -0.000021 10.592491 -0.524559 -2.232368 45.074140 -64.203812 29.184005 27.841745 -0.000078 -0.000084 226.237954 -69.372107 243.339532 28.328842 -0.000028 0.000031 0.000018 -0.000089 -0.000001 2.466177 -1.576117 2.681895 111.468926 160.959896 -158.747134 3.217846 -1.872000 1.916543 253.955668 37.346221 47.399915 2.656052 -1.528754 1.514625 -103.893803 32.757181 44.696591 2.020884 -1.154068 1.115147 0.000002 0.000009 0.000006 9.109043 -0.517845 2.259983 189.303201 -13.028851 250.924566 3.699724 0.000197 -0.000202 192.422671 -14.433675 -98.632385 2.849735 0.000228 0.000474 12.401901 -163.879666 74.993093 2.774897 -0.000034 -0.000028 0.000005 0.000000 0.000002 9.533464 0.000091 -0.000020 63.442929 -40.069277 25.397780 3.700006 -0.000009 -0.000283 14.921207 0.450602 -0.059292 2.950007 -0.000042 -0.000060 -0.966526 2.079320 0.017480 2.952868 -0.000030 0.000059 0.000002 0.000001 0.000002 9.104561 -0.043010 -1.865134 213.378620 -156.823916 187.036712 3.149978 0.000057 -0.000036 6.934873 26.253598 -1.619352 2.949970 -0.000016 0.000013 -9.482623 18.899217 1.581412 2.644317 0.000014 0.000056 0.000001 0.000001 0.000000 8.077806 -0.486895 -3.806291 17.494935 -21.340902 3.481341 3.599954 0.000005 0.014689 3.497913 13.672039 -0.457219 2.100005 0.000004 0.007701 -10.531194 22.252971 1.960591 2.125505 -0.000002 0.007517 -0.000001 -0.000003 -0.000000 -8.207786 -6.751667 -1.599560 -0.077001 -0.000003 0.000080 -0.000002 -44.370110 0.345938 0.153719 -0.000000 -0.000000 0.000000 -44.423679 -3.043532 -0.076700 0.000000 -0.000002 -0.000006 -8.728667 10.710559 -0.000009 -0.000000 -0.000000 -0.000001 -0.000679 9.278123 0.000000 -0.000000 -0.000000 8.207792 -6.751710 -1.599556 -0.074518 -0.000003 0.000081 -0.000002 -44.370014 0.346960 0.148822 0.000002 0.000000 -0.000001 -44.423664 -3.044403 -0.074314 0.000000 -0.000002 -0.000004 -8.728671 10.710558 0.000007 -0.000000 -0.000000 0.000000 -0.000680 9.278137 -0.000000 0.000000 -0.000001 
